<?xml version="1.0" encoding="utf-8"?>
<!-- Generator: Adobe Illustrator 22.0.1, SVG Export Plug-In . SVG Version: 6.00 Build 0)  -->
<svg version="1.1" id="Layer_1" xmlns="http://www.w3.org/2000/svg" xmlns:xlink="http://www.w3.org/1999/xlink" x="0px" y="0px"
	 viewBox="0 0 504 420.6" style="enable-background:new 0 0 504 420.6;" xml:space="preserve">
<path d="M344.1,78.1c3.9-0.4,7.5,0.8,10.6,3.4l0.3-0.3l11.2,11.5l0.6,0.3c32.5,32.5,48.7,71.7,48.7,117.6
	c0.2,45.7-15.9,84.9-48.2,117.6h0.6l-11.8,11.2c-3,2.4-6.3,3.6-10.1,3.6c-3.7,0-7-1.2-9.8-3.6l-0.3,0.3l-20.2-20.4
	c-2.6-3-4-6.4-4.2-10.4c-0.2-3.9,0.9-7.5,3.4-10.6h-0.3l11.5-11.5c20.9-21.1,31.2-46.6,30.8-76.4c-0.2-29.7-10.7-55-31.6-75.9
	l-0.3-0.6l-0.3,0.3l-11.2-11.5c-2.2-3-3.4-6.4-3.4-10.1s1.1-7,3.4-9.8v-0.3l20.2-20.2C336.7,79.7,340.2,78.3,344.1,78.1L344.1,78.1z
	 M268.2,55.2c3.2,0,6,1.1,8.4,3.4c2.2,2.1,3.5,4.6,3.9,7.6h0.3l0,312.2h-0.3l0.3,1.7c0,3.4-1.2,6.2-3.6,8.4c-2.6,2.4-5.6,3.6-9,3.6
	c-2.4,0-4.7-0.7-6.7-2l-98-56.8l0,0.3L94.9,294H9.2v-0.3c-2.6,0-4.8-0.8-6.4-2.5c-1.9-1.7-2.8-3.8-2.8-6.4V162.7
	c0-2.6,0.9-4.8,2.8-6.4c1.7-1.9,3.8-2.8,6.4-2.8v-0.3h85.7l167.2-96.6l0.3,0.6C264.8,55.8,266.7,55.2,268.2,55.2L268.2,55.2z
	 M381.6,56.3l-0.3-0.6l-0.3,0.3l-11.2-11.2v-0.3c-2.2-3-3.4-6.2-3.4-9.8c0-3.7,1.1-7.1,3.4-10.1L390,4.2c3-2.6,6.4-4,10.4-4.2
	c3.9,0,7.5,1.1,10.6,3.4l11.5,11.2l0.3,0.6c53.9,54,81,119.1,81.2,195.4c0.2,76.2-26.6,141.3-80.4,195.4l-11.2,11.5l-0.3-0.3
	c-2.8,2.2-6.1,3.4-9.8,3.4c-3.7,0-7-1-9.8-3.1h-0.3l-20.2-20.2c-2.6-3-4-6.4-4.2-10.4c-0.4-3.9,0.7-7.5,3.4-10.6L371,376l11.5-11.2
	c42.4-42.8,63.5-94.2,63.3-154.3C445.6,150.3,424.2,98.8,381.6,56.3L381.6,56.3z"/>
</svg>
