<?xml version="1.0" encoding="utf-8"?>
<!-- Generator: Adobe Illustrator 22.0.1, SVG Export Plug-In . SVG Version: 6.00 Build 0)  -->
<svg version="1.1" id="Layer_1" xmlns="http://www.w3.org/2000/svg" xmlns:xlink="http://www.w3.org/1999/xlink" x="0px" y="0px"
	 viewBox="0 0 504 420.6" style="enable-background:new 0 0 504 420.6;" xml:space="preserve">
<path d="M268.2,55.2c3.2,0,6,1.1,8.4,3.4c2.2,2.1,3.5,4.6,3.9,7.6h0.3l0,312.2h-0.3l0.3,1.7c0,3.4-1.2,6.2-3.6,8.4
	c-2.6,2.4-5.6,3.6-9,3.6c-2.4,0-4.7-0.7-6.7-2l-98-56.8l0,0.3L94.9,294H9.2v-0.3c-2.6,0-4.8-0.8-6.4-2.5c-1.9-1.7-2.8-3.8-2.8-6.4
	V162.7c0-2.6,0.9-4.8,2.8-6.4c1.7-1.9,3.8-2.8,6.4-2.8v-0.3h85.7l167.2-96.6l0.3,0.6C264.8,55.8,266.7,55.2,268.2,55.2L268.2,55.2z"
	/>
</svg>
