<?xml version="1.0" encoding="utf-8"?>
<!-- Generator: Adobe Illustrator 22.0.1, SVG Export Plug-In . SVG Version: 6.00 Build 0)  -->
<svg version="1.1" id="Layer_1" xmlns="http://www.w3.org/2000/svg" xmlns:xlink="http://www.w3.org/1999/xlink" x="0px" y="0px"
	 viewBox="0 0 654.2 560" style="enable-background:new 0 0 654.2 560;" xml:space="preserve">
<path d="M624.3,0H495.7c-7.9,0-15.5,3.1-21.1,8.8c-5.6,5.6-8.8,13.2-8.8,21.1v233.5c-2.6-4-6.1-7.3-10.3-9.6L44.4,24.8
	c-9.3-5.1-20.5-5-29.6,0.4C5.6,30.5,0,40.3,0,50.8v458.3c-0.1,10.6,5.5,20.5,14.6,25.9c9.1,5.4,20.5,5.6,29.7,0.4l411.3-229.4
	c4.2-2.3,7.7-5.6,10.3-9.6v233.6c0,7.9,3.2,15.5,8.8,21.1c5.6,5.6,13.2,8.8,21.1,8.8h128.4c7.9,0,15.5-3.1,21.1-8.8
	c5.6-5.6,8.8-13.2,8.8-21.1V29.6c-0.1-7.9-3.3-15.4-8.8-21C639.7,3.1,632.2,0,624.3,0L624.3,0z"/>
</svg>
