<?xml version="1.0" encoding="utf-8"?>
<!-- Generator: Adobe Illustrator 22.0.1, SVG Export Plug-In . SVG Version: 6.00 Build 0)  -->
<svg version="1.1" id="Layer_1" xmlns="http://www.w3.org/2000/svg" xmlns:xlink="http://www.w3.org/1999/xlink" x="0px" y="0px"
	 viewBox="0 0 507 507" style="enable-background:new 0 0 507 507;" xml:space="preserve">
<path d="M253.5,0C113.5,0,0,113.5,0,253.5S113.5,507,253.5,507S507,393.5,507,253.5S393.5,0,253.5,0z M228,355.5
	c0,9.1-7.4,16.5-16.5,16.5H180c-9.1,0-16.5-7.4-16.5-16.5v-204c0-9.1,7.4-16.5,16.5-16.5h31.5c9.1,0,16.5,7.4,16.5,16.5V355.5z
	 M343.5,355.5c0,9.1-7.4,16.5-16.5,16.5h-31.5c-9.1,0-16.5-7.4-16.5-16.5v-204c0-9.1,7.4-16.5,16.5-16.5H327
	c9.1,0,16.5,7.4,16.5,16.5V355.5z"/>
</svg>
