<?xml version="1.0" encoding="utf-8"?>
<!-- Generator: Adobe Illustrator 22.0.1, SVG Export Plug-In . SVG Version: 6.00 Build 0)  -->
<svg version="1.1" id="Layer_1" xmlns="http://www.w3.org/2000/svg" xmlns:xlink="http://www.w3.org/1999/xlink" x="0px" y="0px"
	 viewBox="0 0 654.2 560" style="enable-background:new 0 0 654.2 560;" xml:space="preserve">
<path d="M29.9,560h128.5c7.9,0,15.5-3.1,21.1-8.8c5.6-5.6,8.8-13.2,8.8-21.1V296.6c2.6,4,6.1,7.3,10.3,9.6l411.2,229
	c9.3,5.1,20.5,5,29.6-0.4c9.1-5.4,14.7-15.1,14.8-25.7V50.8c0.1-10.6-5.5-20.5-14.6-25.9c-9.1-5.4-20.5-5.6-29.7-0.4L198.5,253.9
	c-4.2,2.3-7.7,5.6-10.3,9.6V29.9c0-7.9-3.2-15.5-8.8-21.1C173.8,3.1,166.2,0,158.3,0H29.9C22,0,14.4,3.1,8.8,8.8
	C3.1,14.4,0,22,0,29.9v500.5c0.1,7.9,3.3,15.4,8.8,21C14.4,556.9,22,560,29.9,560L29.9,560z"/>
</svg>
